<svg width="53.763" height="53.763" xmlns="http://www.w3.org/2000/svg">

 <g>
  <title>background</title>
  <rect fill="none" id="canvas_background" height="402" width="582" y="-1" x="-1"/>
 </g>
 <g>
  <title>Layer 1</title>
  <circle fill="#44b2e2" id="svg_1" r="26.881" cy="26.881" cx="26.881"/>
  <path id="svg_3" fill="#FFFFFF" d="m36.198,16.519c0.771,1.071 1.155,2.353 1.155,3.845c0,1.538 -0.389,2.774 -1.166,3.708c-0.435,0.524 -1.075,1.003 -1.922,1.436c1.286,0.467 2.256,1.208 2.91,2.221c0.654,1.015 0.981,2.245 0.981,3.691c0,1.493 -0.374,2.832 -1.121,4.017c-0.477,0.786 -1.071,1.447 -1.784,1.982c-0.805,0.615 -1.753,1.037 -2.847,1.265c-1.093,0.229 -2.279,0.342 -3.56,0.342l-11.35,0l0,-25.19l12.173,0c3.074,0.046 5.25,0.94 6.531,2.683zm-13.678,1.692l0,5.554l6.123,0c1.094,0 1.981,-0.208 2.664,-0.624c0.682,-0.416 1.023,-1.154 1.023,-2.213c0,-1.173 -0.451,-1.948 -1.354,-2.324c-0.778,-0.262 -1.771,-0.393 -2.977,-0.393l-5.479,0zm0,9.724l0,6.717l6.116,0c1.092,0 1.942,-0.148 2.551,-0.444c1.104,-0.547 1.655,-1.595 1.655,-3.145c0,-1.31 -0.534,-2.21 -1.604,-2.7c-0.597,-0.273 -1.436,-0.416 -2.518,-0.428l-6.2,0z"/>
 </g>
</svg>